<svg xmlns="http://www.w3.org/2000/svg" width="90" height="70" viewBox="4 0 20 70">
  <defs>
    <filter id="dh-logo-icon-a" width="135.4%" height="145.2%" x="-17.1%" y="-16.1%" filterUnits="objectBoundingBox">
      <feMerge>
        <feMergeNode in="SourceGraphic"/>
      </feMerge>
    </filter>
  </defs>
  <g fill="none" fill-rule="evenodd" filter="url(#dh-logo-icon-a)" transform="translate(8 4)">
    <rect width="9.342" height="9.458" y="21.017" fill="#807AB6"/>
    <rect width="9.342" height="9.458" x="10.38" y="42.034" fill="#807AB6"/>
    <rect width="9.342" height="9.458" x="10.38" y="10.508" fill="#ccf"/>
    <rect width="9.342" height="9.458" fill="#CCF"/>
    <rect width="9.342" height="9.458" x="10.38" y="31.525" fill="#CCF"/>
    <rect width="9.342" height="9.458" y="42.034" fill="#CCF"/>
    <rect width="9.342" height="9.458" x="10.38" y="52.542" fill="#8D86C9"/>
    <rect width="9.342" height="9.458" x="20.759" y="52.542" fill="#CCF"/>
    <rect width="9.342" height="9.458" x="31.139" y="42.034" fill="#CCF"/>
    <rect width="9.342" height="9.458" x="41.519" y="31.525" fill="#C5BFF6"/>
    <rect width="9.342" height="9.458" x="51.899" y="21.017" fill="#CCF"/>
    <rect width="9.342" height="9.458" x="51.899" y="42.034" fill="#8D86C9"/>
    <rect width="9.342" height="9.458" x="51.899" y="52.542" fill="#CCF"/>
    <rect width="9.342" height="9.458" x="72.658" y="52.542" fill="#CCF"/>
    <rect width="9.342" height="9.458" x="72.658" y="31.525" fill="#CCF"/>
    <rect width="9.342" height="9.458" y="52.542" fill="#CCF"/>
    <rect width="9.342" height="9.458" x="72.658" y="10.508" fill="#807AB6"/>
    <rect width="9.342" height="9.458" x="20.759" y="21.017" fill="#CCF"/>
    <rect width="9.342" height="9.458" x="62.278" y="21.017" fill="#CCF"/>
    <rect width="9.342" height="9.458" x="72.658" fill="#CCF"/>
    <rect width="9.342" height="9.458" x="51.899" fill="#CCF"/>
    <rect width="9.342" height="9.458" x="20.759" fill="#807AB6"/>
    <rect width="9.342" height="9.458" x="31.139" y="10.508" fill="#CCF"/>
  </g>
</svg>
